<?xml version="1.0" standalone="no"?>
<!DOCTYPE svg PUBLIC "-//W3C//DTD SVG 1.1//EN" "http://www.w3.org/Graphics/SVG/1.1/DTD/svg11.dtd" >
<svg xmlns="http://www.w3.org/2000/svg">
<metadata>
Created by FontForge 20120731 at Sun Mar 19 14:22:44 2017
 By admin
</metadata>
<defs>
<font id="iconfont" horiz-adv-x="1024" >
  <font-face 
    font-family="iconfont"
    font-weight="500"
    font-stretch="normal"
    units-per-em="1024"
    panose-1="2 0 6 3 0 0 0 0 0 0"
    ascent="896"
    descent="-128"
    x-height="792"
    bbox="-0.142857 -212 1246.2 896"
    underline-thickness="0"
    underline-position="0"
    unicode-range="U+0078-E7CB"
  />
<missing-glyph 
 />
    <glyph glyph-name=".notdef" 
 />
    <glyph glyph-name=".notdef" 
 />
    <glyph glyph-name=".null" horiz-adv-x="0" 
 />
    <glyph glyph-name="nonmarkingreturn" horiz-adv-x="341" 
 />
    <glyph glyph-name="x" unicode="x" horiz-adv-x="1001" 
d="M281 543q-27 -1 -53 -1h-83q-18 0 -36.5 -6t-32.5 -18.5t-23 -32t-9 -45.5v-76h912v41q0 16 -0.5 30t-0.5 18q0 13 -5 29t-17 29.5t-31.5 22.5t-49.5 9h-133v-97h-438v97zM955 310v-52q0 -23 0.5 -52t0.5 -58t-10.5 -47.5t-26 -30t-33 -16t-31.5 -4.5q-14 -1 -29.5 -0.5
t-29.5 0.5h-32l-45 128h-439l-44 -128h-29h-34q-20 0 -45 1q-25 0 -41 9.5t-25.5 23t-13.5 29.5t-4 30v167h911zM163 247q-12 0 -21 -8.5t-9 -21.5t9 -21.5t21 -8.5q13 0 22 8.5t9 21.5t-9 21.5t-22 8.5zM316 123q-8 -26 -14 -48q-5 -19 -10.5 -37t-7.5 -25t-3 -15t1 -14.5
t9.5 -10.5t21.5 -4h37h67h81h80h64h36q23 0 34 12t2 38q-5 13 -9.5 30.5t-9.5 34.5q-5 19 -11 39h-368zM336 498v228q0 11 2.5 23t10 21.5t20.5 15.5t34 6h188q31 0 51.5 -14.5t20.5 -52.5v-227h-327z" />
    <glyph glyph-name="shezhi" unicode="&#xe605;" 
d="M848 271q47 0 79.5 33t32.5 79.5t-32.5 79t-79.5 32.5h-19q-6 17 -14 33l14 14q33 32 33 78.5t-33 79.5t-79.5 33t-78.5 -33l-14 -14q-16 8 -33 14v19q0 47 -32.5 79.5t-79 32.5t-79.5 -32.5t-33 -79.5v-19q-16 -6 -33 -14l-13 14q-33 33 -79.5 33t-79 -33t-32.5 -79.5
t32 -78.5l14 -14q-8 -16 -13 -33h-20q-46 0 -79 -32.5t-33 -79t33 -79.5t79 -33h20q5 -16 13 -32l-14 -14q-32 -33 -32 -79.5t32.5 -79t79 -32.5t79.5 33l13 13q16 -7 33 -13v-20q0 -46 33 -79t79.5 -33t79 33t32.5 79v20q17 6 33 13l14 -13q32 -33 78.5 -33t79.5 32.5
t33 79t-33 79.5l-14 14q8 16 14 32h19zM789 185q17 -16 17 -39.5t-17 -39.5q-15 -16 -39 -16t-40 16l-43 43l-18 -10q-29 -16 -60 -25l-21 -6v-61q0 -23 -16.5 -39.5t-39.5 -16.5t-39.5 16.5t-16.5 39.5v61l-20 6q-32 9 -60 25l-19 10l-43 -43q-16 -16 -39.5 -16t-39.5 16
t-16 39.5t16 39.5l43 43l-10 19q-16 28 -25 60l-6 20h-61q-23 0 -39.5 16.5t-16.5 40t16.5 39.5t39.5 16h61l6 21q9 32 25 60l10 18l-43 43q-16 17 -16 40t16 40q16 15 39.5 15t39.5 -15l43 -44l19 11q28 15 60 25l20 5v61q0 24 16.5 40t39.5 16t39.5 -16t16.5 -40v-61
l21 -5q32 -10 60 -25l18 -11l43 44q16 15 40 15t39 -15q17 -17 17 -40t-17 -40l-43 -43l11 -18q15 -28 24 -60l6 -21h61q23 0 39.5 -16t16.5 -39.5t-16.5 -40t-39.5 -16.5h-61l-6 -20q-9 -32 -24 -60l-11 -19zM512.5 551q-69.5 0 -119 -49t-49.5 -118.5t49.5 -119t119 -49.5
t118.5 49.5t49 119t-49 118.5t-118.5 49zM512.5 271q-46.5 0 -79.5 33t-33 79.5t33 79t79.5 32.5t79 -32.5t32.5 -79t-32.5 -79.5t-79 -33z" />
    <glyph glyph-name="shanchu" unicode="&#xe602;" 
d="M344.5 105q11.5 0 19.5 8t8 20v306q0 12 -8 20t-19.5 8t-19.5 -8t-8 -20v-306q0 -12 8 -20t19.5 -8zM511.5 105q11.5 0 20 8t8.5 20v306q0 12 -8.5 20t-20 8t-19.5 -8t-8 -20v-306q0 -12 8 -20t19.5 -8zM679.5 105q11.5 0 19.5 8t8 20v306q0 12 -8 20t-19.5 8t-20 -8
t-8.5 -20v-306q0 -12 8.5 -20t20 -8zM819 746h-116q-9 37 -39 60.5t-68 23.5h-168q-38 0 -68 -23.5t-39 -60.5h-116q-46 0 -79 -32.5t-33 -78.5v-28h28v-28h56v-530q0 -46 32.5 -79t79.5 -33h446q46 0 79 33t33 79v530h55v28h28v28q0 46 -32.5 78.5t-78.5 32.5zM428 774h168
q31 0 48 -28h-264q16 28 48 28zM791 49q0 -23 -16.5 -39.5t-39.5 -16.5h-446q-24 0 -42 16.5t-18 39.5l4 530h558v-530zM149 635q0 23 16.5 39.5t39.5 16.5h614q23 0 39.5 -16.5t16.5 -39.5h-726z" />
    <glyph glyph-name="sousuo" unicode="&#xe604;" 
d="M961 -104l-272 272q86 100 86 231q0 97 -47.5 178.5t-129.5 129.5t-178.5 48t-178.5 -48t-129.5 -129.5t-47.5 -178t47.5 -178.5t129.5 -129.5t178 -47.5q115 0 208 67l275 -274zM106 399.5q0 129.5 92 221.5t221.5 92t221.5 -92t92 -221.5t-92 -221.5t-221.5 -92
t-221.5 92t-92 221.5z" />
    <glyph glyph-name="bianji" unicode="&#xe65a;" 
d="M360.5 105.5q5.5 -5.5 13 -5.5t12.5 5l455 547q6 5 6 12.5t-5.5 13t-13 5.5t-12.5 -5l-456 -547q-5 -5 -5 -12.5t5.5 -13zM829.5 300q-7.5 0 -13 -5.5t-5.5 -12.5v-293q0 -15 -10.5 -25.5t-25.5 -10.5h-549q-15 0 -25.5 10.5t-10.5 25.5v549q0 15 10.5 25.5t25.5 10.5
h256q8 0 13 5.5t5 13t-5 13t-13 5.5h-256q-30 0 -51.5 -21.5t-21.5 -51.5v-549q0 -30 21.5 -51.5t51.5 -21.5h549q30 0 51.5 21.5t21.5 51.5v293q0 7 -5.5 12.5t-13 5.5z" />
    <glyph glyph-name="iconfontyuan" unicode="&#xe674;" 
d="M512 507q-91 0 -155 -64t-64 -155t64 -155t155 -64t155 64t64 155t-64 155t-155 64z" />
    <glyph glyph-name="moban" unicode="&#xe63a;" 
d="M791 -148h-560q-46 0 -79 32.5t-33 79.5v612q0 47 33 79.5t79 32.5h56v32q0 12 8 20t20 8h56q12 0 20 -8t8 -20v-32h224v32q0 12 8.5 20t19.5 8h56q12 0 20 -8t8 -20v-32h56q47 0 79.5 -32.5t32.5 -79.5v-612q0 -47 -32.5 -79.5t-79.5 -32.5v0zM847 580q0 23 -16 39.5
t-40 16.5h-56v-28q0 -11 -8 -19.5t-20 -8.5h-56q-11 0 -19.5 8.5t-8.5 19.5v28h-224v-28q0 -11 -8 -19.5t-20 -8.5h-56q-12 0 -20 8.5t-8 19.5v28h-56q-23 0 -39.5 -16.5t-16.5 -39.5v-560q0 -23 16.5 -39.5t39.5 -16.5h560q24 0 40 16.5t16 39.5v560v0zM287 188h448v-112
h-448v112v0zM287 356h448v-112h-448v112v0zM287 524h448v-112h-448v112v0zM287 524z" />
    <glyph glyph-name="refurbish" unicode="&#xe754;" 
d="M927 268v20q0 113 -55.5 209t-151 151.5t-208.5 55.5q-118 0 -218 -62q-25 -14 -25 -42q0 -20 14 -34t34 -14q15 0 27 9q77 47 168 47q87 0 160.5 -43t116.5 -116.5t43 -160.5q0 -10 -1 -20h-93l143 -205l143 205h-97zM707 24q-15 0 -27 -9q-77 -47 -168 -47
q-87 0 -160.5 43t-116.5 116.5t-43 160.5q0 10 1 20h93l-143 205l-143 -205h97v-20q0 -113 55.5 -209t151 -151.5t208.5 -55.5q118 0 218 62q25 14 25 42q0 20 -14 34t-34 14z" />
    <glyph glyph-name="arrow121112" unicode="&#xe60d;" 
d="M897 -159h-705v319h705v-319zM833 160h-577v-256h577v256zM512 416h64v-384h-64v384zM192 416v0v0v0v0v0zM580 416h124l-165 192l-155 -192h40h156z" />
    <glyph glyph-name="zhankai" unicode="&#xe7cb;" 
d="M930 501q-14 17 -36 17q-18 0 -31 -11l-335 -282l-336 282q-13 11 -31 11q-22 0 -36 -17q-13 -15 -11.5 -35t16.5 -32l366 -307q14 -12 32 -11q17 -1 31 11l366 307q15 12 16.5 32t-11.5 35z" />
    <glyph glyph-name="iconfontcolor56" unicode="&#xe698;" 
d="M488 -112h-3q-17 2 -21 19l-149 694l-146 -402q-6 -16 -23 -16h-122q-10 0 -17 7t-7 17t7 17t17 7h106l169 465q6 17 24 16t22 -19l151 -705l142 310q7 15 24 14q16 -1 21 -17l46 -152h271q10 0 17 -7t7 -17t-7 -17t-17 -7h-289q-18 0 -23 17l-33 108l-145 -318
q-7 -14 -22 -14z" />
    <glyph glyph-name="fanhui" unicode="&#xe696;" 
d="M796 336h-433l198 199l-49 49l-284 -284l284 -284l51 51l-200 197h433v72z" />
    <glyph glyph-name="tables" unicode="&#xe613;" 
d="M918 680h-812q-17 0 -29.5 -12.5t-12.5 -29.5v-700q0 -17 12.5 -29.5t29.5 -12.5h812q17 0 29.5 12.5t12.5 29.5v700q0 17 -12.5 29.5t-29.5 12.5zM918 512v-164h-243v164h243zM391 143v163h242v-163h-242zM633 101v-163h-242v163h242zM349 143h-243v163h243v-163z
M633 512v-164h-242v164h242zM675 306h243v-163h-243v163zM400 638q17 0 29.5 -12.5t12.5 -29.5t-12.5 -29.5t-29.5 -12.5t-29.5 12.5t-12.5 29.5t12.5 29.5t29.5 12.5zM274 638q17 0 29.5 -12.5t12.5 -29.5t-12.5 -29.5t-29.5 -12.5t-29.5 12.5t-12.5 29.5t12.5 29.5
t29.5 12.5zM148 638q17 0 29.5 -12.5t12.5 -29.5t-12.5 -29.5t-29.5 -12.5t-29.5 12.5t-12.5 29.5t12.5 29.5t29.5 12.5zM148 512h201v-164h-243v164h42zM106 101h243v-163h-243v163zM675 -62v163h243v-163h-243z" />
    <glyph glyph-name="start" unicode="&#xe601;" 
d="M512 -210q-101 0 -193 39.5t-159 106.5t-106.5 159t-39.5 193t39.5 193t106.5 159t159 106.5t193 39.5t193 -39.5t159 -106.5t106.5 -159t39.5 -193t-39.5 -193t-106.5 -159t-159 -106.5t-193 -39.5zM512 757q-95 0 -182 -37t-150 -100t-100 -150t-37 -182t37 -182
t100 -150t150 -100t182 -37t182 37t150 100t100 150t37 182t-37 182t-100 150t-150 100t-182 37zM404 462l302 -174l-302 -174v348zM397 101v374l323 -187zM411 450v-324l280 162z" />
    <glyph glyph-name="shujuku" unicode="&#xe638;" 
d="M512 -180q-111 0 -204 24t-146 65.5t-53 91.5v598q0 50 53 91.5t146 65.5t204 24t204 -24t146 -65.5t53 -91.5v-598q0 -50 -53 -91.5t-146 -65.5t-204 -24zM512 742q-79 0 -148.5 -13t-116 -33t-73.5 -45.5t-27 -51.5v-598q0 -26 27 -51.5t73.5 -45.5t116 -33t148.5 -13
t148.5 13t116 33t73.5 45.5t27 51.5v598q0 26 -27 51.5t-73.5 45.5t-116 33t-148.5 13zM512 25q-111 0 -204 24t-146 65.5t-53 91.5q0 8 5.5 13.5t13.5 5.5t13.5 -5.5t5.5 -13.5q0 -26 27 -51.5t73.5 -46t116 -33t148.5 -12.5t148.5 12.5t116 33t73.5 46t27 51.5
q0 8 5.5 13.5t13.5 5.5t13.5 -5.5t5.5 -13.5q0 -50 -53 -91.5t-146 -65.5t-204 -24zM512 230q-111 0 -204 24t-146 65.5t-53 91.5q0 8 5.5 13.5t13.5 5.5t13.5 -5.5t5.5 -13.5q0 -26 27 -51.5t73.5 -46t116 -33t148.5 -12.5t148.5 12.5t116 33t73.5 46t27 51.5q0 8 5.5 13.5
t13.5 5.5t13.5 -5.5t5.5 -13.5q0 -50 -53 -91.5t-146 -65.5t-204 -24zM512 434q-111 0 -204 24t-146 66t-53 92q0 8 5.5 13.5t13.5 5.5t13.5 -5.5t5.5 -13.5q0 -26 27 -51.5t73.5 -46t116 -33t148.5 -12.5t148.5 12.5t116 33t73.5 46t27 51.5q0 8 5.5 13.5t13.5 5.5
t13.5 -5.5t5.5 -13.5q0 -50 -53 -92t-146 -66t-204 -24z" />
    <glyph glyph-name="jiahao" unicode="&#xe685;" 
d="M896 351h-326v326q0 18 -12.5 30.5t-30.5 12.5t-30.5 -12.5t-12.5 -30.5v-326h-326q-18 0 -30.5 -12.5t-12.5 -30.5t12.5 -30.5t30.5 -12.5h326v-326q0 -18 12.5 -30.5t30.5 -12.5t30.5 12.5t12.5 30.5v326h326q18 0 30.5 12.5t12.5 30.5t-12.5 30.5t-30.5 12.5zM532 667
z" />
    <glyph glyph-name="cha" unicode="&#xe607;" 
d="M793 513l-56 56l-225 -225l-225 225l-56 -56l225 -225l-225 -225l56 -56l225 225l225 -225l56 56l-225 225z" />
    <glyph glyph-name="weibiaoti1" unicode="&#xe600;" 
d="M0 -212v931h465v-93h-372v-745h745v372h93v-465h-931v0zM279 67l140 280l140 -140l-280 -140v0zM605 253l-140 140l419 419l140 -140l-419 -419v0z" />
    <glyph glyph-name="yibiaopan" unicode="&#xe626;" 
d="M512 793q-100 0 -191.5 -39t-157.5 -105t-105 -157.5t-39 -192t39 -192t105 -157.5t157.5 -105t192 -39t192 39t157.5 105t105 157.5t39 192t-39 192t-105 157.5t-157.5 105t-192.5 39v0v0zM512 -140q-89 0 -170.5 34.5t-140.5 93.5t-93.5 140.5t-34.5 171t34.5 171
t93.5 140t140.5 93.5t171 35t171 -35t140 -93.5t93.5 -140t35 -171t-35 -171t-93.5 -140.5t-140 -93.5t-171.5 -34.5v0v0zM364 86h81v-133h-81v133v0zM486 86h81v-133h-81v133v0zM606 86h80v-133h-80v133v0zM578 269q0 -17 -12 -29t-29 -12t-28.5 11.5t-12.5 27.5l-145 180
l186 -137q17 0 29 -12t12 -29v0v0zM278 201l36 -36l-67 -67l-36 36l67 67v0zM247 325h-94v51h94v-51v0zM268 600l67 -67l-36 -36l-67 67l36 36v0zM538 577h-51v95h51v-95v0zM743 479l-36 35l67 67l35 -36l-66 -66v0zM886 376v-51h-94v51h94v0zM760 191l67 -67l-36 -36
l-67 67l36 36v0zM760 191z" />
    <glyph glyph-name="7" unicode="&#xe612;" 
d="M865 326l-271 -38l234 -142q38 75 38 159q0 10 -1 21zM533 656l10 -321l318 45q-26 116 -117.5 193.5t-210.5 82.5zM489 286l-4 114l-8 255q-135 -13 -227 -114.5t-92 -237.5q0 -96 47.5 -177.5t129 -129t177.5 -47.5q86 0 162 39t126 109z" />
    <glyph glyph-name="62" unicode="&#xe694;" 
d="M933 54v-11q0 -5 -3.5 -8.5t-7.5 -3.5h-785q-15 0 -25 10t-10 24v660q0 5 3.5 8.5t8.5 3.5h11q5 0 8.5 -3.5t3.5 -8.5v-648q0 -5 3 -8.5t8 -3.5h774q4 0 7.5 -3t3.5 -8zM216 100h137q4 0 7.5 3t3.5 8v455q0 5 -3.5 8t-7.5 3h-137q-5 0 -8 -3t-3 -8v-455q0 -5 3 -8t8 -3z
M432 100h137q5 0 8 3t3 8v546q0 5 -3 8t-8 3h-137q-4 0 -7.5 -3t-3.5 -8v-546q0 -5 3.5 -8t7.5 -3zM649 100h136q5 0 8 3t3 8v284q0 5 -3 8.5t-8 3.5h-136q-5 0 -8.5 -3.5t-3.5 -8.5v-284q0 -5 3.5 -8t8.5 -3z" />
    <glyph glyph-name="zhexiantu" unicode="&#xe66d;" 
d="M191 -52q0 -13 -9.5 -22.5t-22.5 -9.5v0q-13 0 -22.5 9.5t-9.5 22.5v704q0 13 9.5 22.5t22.5 9.5v0q13 0 22.5 -9.5t9.5 -22.5v-704zM159 -84q-13 0 -22.5 9.5t-9.5 22.5v0q0 13 9.5 22.5t22.5 9.5h712q13 0 22.5 -9.5t9.5 -22.5v0q0 -13 -9.5 -22.5t-22.5 -9.5h-712z
M307 126q-9 -10 -22 -10t-23 10v0q-9 9 -9 22t9 22l174 174q9 9 22 9t22 -9v0q10 -9 10 -22.5t-10 -22.5zM609 172q-9 -9 -22.5 -9t-22.5 9v0q-9 9 -9 22t9 23l213 213q9 9 22 9t23 -9v0q9 -10 9 -23t-9 -22zM608 217q9 -10 9 -23t-9 -22v0q-9 -9 -22 -9t-23 9l-127 127
q-9 9 -9 22.5t9 22.5v0q9 9 22.5 9t22.5 -9z" />
    <glyph glyph-name="chahao" unicode="&#xe6de;" 
d="M866 -24q-21 0 -37 16l-709 709q-16 15 -16 37t15.5 37.5t37.5 15.5t37 -16l709 -709q16 -16 16 -37.5t-15.5 -37t-37.5 -15.5v0zM866 -24zM157 -24q-22 0 -37.5 15.5t-15.5 37t16 37.5l709 709q16 16 37.5 16t37 -15.5t15.5 -37.5t-15 -37l-710 -709q-15 -16 -37 -16v0z
M157 -24z" />
    <glyph glyph-name="loudoutu" unicode="&#xe64f;" 
d="M96 677l-96 219h1024l-96 -219h-832zM160 530h704l-96 -219h-512zM704 165l-128 -293h-128l-128 293h384z" />
    <glyph glyph-name="ditu" unicode="&#xe61f;" horiz-adv-x="1247" 
d="M1235 802l-61 -27q-5 -2 -9 1l-61 47l-0.5 0.5l-0.5 0.5l-63 66q-2 2 -5 2l-41 4q-3 0 -5 -1l-35 -23q-2 -2 -3 -5l-24 -81q-1 -4 -5 -6l-27 -10q-6 -3 -6 -8v-28q0 -7 7 -9l56 -12q5 -1 6 -6.5t-3 -8.5l-55 -35h-0.5t-0.5 -1l-118 -98q-2 -2 -5 -2l-53 -2q-1 0 -3 -1
l-51 -22q-4 -2 -7 0l-68 33q-1 0 -3 1l-89 10q-5 1 -7 5l-12 31q-1 3 -4 5l-77 37q-5 2 -5 6l-2 17v1l1 35q0 3 -1 5l-33 52q-4 7 -11 3l-53 -32q-1 0 -1.5 -0.5l-0.5 -0.5l-12 -12q-3 -3 -7 -2l-27 4q-6 1 -9 -5l-13 -29q-2 -5 -8 -5l-35 1q-6 0 -8 -6l-20 -64q-1 -5 -6 -6
l-93 -19l-0.5 -0.5l-0.5 -0.5l-52 -19q-6 -2 -5 -9l4 -22v-1l34 -86v-1q32 -67 32 -74q-1 -7 -21 -56q-1 -4 1 -8l14 -18q1 -1 1 -2l112 -93l2 -1l172 -77q2 -1 5 0l104 22q3 1 5 0l41 -22q6 -4 4 -10l-25 -80q-2 -5 3 -9l88 -75q4 -3 9 -1l109 43q4 2 7 0l71 -44h0.5h0.5
l32 -24q1 -1 2 -1l14 -5q4 -1 7.5 1t3.5 6l2 15q0 4 4 6l178 98q2 2 3 4l64 122q1 2 1 4l-3 98q0 3 -2 5l-38 46l-27 34q-4 5 0 10l42 51q1 1 3 2v0q5 2 4.5 8t-6.5 7l-19 6h-2h-51q-4 0 -6 3l-13 17q-5 7 2 12l61 48q4 3 9 0.5t5 -7.5l-1 -11q0 -5 3.5 -7.5t8.5 -0.5l26 12
q1 0 2 1l122 109q3 2 3 6l5 65q1 7 8 7l13 1q7 0 7 8l6 80q1 5 -3 7.5t-8 0.5v0zM1085 82l-18 -54l23 -33l18 35l13 36l-9 26l-27 -10v0zM797 -92l-25 -15l18 -21l22 5l27 25l-9 15l-33 -9v0z" />
    <glyph glyph-name="tubiao07-copy" unicode="&#xe617;" 
d="M703 756q54 -3 97 -31.5t66 -82.5q49 -115 -38 -210q-21 -23 -125 -125q-13 -13 -32 -13.5t-31 11.5q-12 13 -10.5 29t15.5 30l54 54l70 70q29 31 32.5 70.5t-19.5 71.5t-64 43q-56 15 -96 -22q-22 -20 -63.5 -61.5t-62.5 -61.5q-18 -16 -36 -15q-24 1 -33 23.5t7 39.5
q83 86 145 142q41 37 124 38zM141 203q0 80 55 136l124 124q15 15 31.5 16t28.5 -12q28 -28 -4 -60q-9 -9 -52.5 -52t-66.5 -67q-36 -36 -37.5 -81.5t31.5 -78.5q32 -32 78 -32t80 32q21 21 60.5 61t59.5 59q18 17 40 12t27 -29q2 -9 -1 -20t-9 -17q-90 -95 -136 -135
q-87 -77 -198 -29q-51 23 -81 70t-30 103zM675 504q-1 -1 -3 -5.5l-4 -9t-5 -7.5q-123 -124 -242 -243q-13 -13 -29.5 -13t-29 12.5t-11.5 28.5t14 29q80 80 239 240q22 21 46 10q23 -10 25 -42z" />
    <glyph glyph-name="icon" unicode="&#xe628;" 
d="M644 464q0 -22 -15 -37t-36.5 -15t-36.5 15t-15 37t15 37t37 15q2 0 5.5 -0.5t4.5 -1.5q-42 30 -91 30q-66 0 -112.5 -47.5t-46.5 -114.5t46.5 -114.5t112.5 -47.5t112.5 47.5t46.5 114.5q0 51 -30 93q3 -9 3 -11v0zM952 397q-29 53 -74 101.5t-101.5 88t-126 63
t-138.5 23.5t-138.5 -23.5t-126 -63t-101.5 -88t-73 -101.5l-9 -15l9 -16q28 -52 73 -101t101.5 -88t126 -63t138.5 -24t138.5 24t126 63t101.5 88t74 101l8 16l-8 15v0zM512 155q-112 0 -216 67.5t-159 159.5q55 91 159 159t216 68t216 -68t159 -159q-55 -92 -159 -159.5
t-216 -67.5v0z" />
    <glyph glyph-name="biaoti" unicode="&#xe603;" 
d="M164 772v-270h75v270h102v61h-279v-61h102zM424 778v55h-67v-55h67zM357 741v-239h67v239h-67zM545 741v72h-68v-72h-41v-44h41v-141q0 -18 6.5 -29t17 -17t24.5 -8t30 -2h20.5t18.5 2v51q-4 -1 -9.5 -1.5t-11.5 -0.5q-17 0 -22.5 5.5t-5.5 22.5v118h49v44h-49zM610 833
v-331h68v331h-68zM879 647h-110q0 7 2.5 16t9 17t17.5 13t27 5q25 0 37 -13t17 -38v0v0zM769 606h177q2 27 -4.5 52.5t-21.5 45.5t-38.5 32t-54.5 12q-28 0 -51 -10t-40 -26.5t-26 -40t-9 -50.5t9 -50.5t25 -40t39.5 -25.5t52.5 -9q42 0 71.5 18.5t43.5 61.5h-59
q-4 -11 -18.5 -21t-35.5 -10q-28 0 -43.5 14.5t-16.5 46.5v0zM62 384h899v-57h-899v57zM62 215h899v-56h-899v56zM62 47h674v-56h-674v56z" />
    <glyph glyph-name="sandian" unicode="&#xe61e;" 
d="M0 896h71v-1024h-71v1024zM0 -57h1024v-71h-1024v71zM624 284zM545 284.5q0 32.5 23 55.5t55.5 23t55.5 -23t23 -55.5t-23 -55.5t-55.5 -23t-55.5 23t-23 55.5zM426 449zM348 449.5q0 32.5 23 55t55 22.5t55 -22.5t23 -55t-23 -55.5t-55 -23t-55 23t-23 55.5zM286 284z
M233 284q0 22 15.5 38t37.5 16t38 -16t16 -38t-16 -37.5t-38 -15.5t-37.5 15.5t-15.5 37.5zM446 132zM393 132q0 22 15.5 37.5t37.5 15.5t37.5 -15.5t15.5 -37.5t-15.5 -38t-37.5 -16t-37.5 16t-15.5 38zM177 121zM124 121q0 22 15.5 37.5t37.5 15.5t37.5 -15.5t15.5 -37.5
t-15.5 -37.5t-37.5 -15.5t-37.5 15.5t-15.5 37.5zM565 634zM512 634q0 22 15.5 38t37.5 16t37.5 -16t15.5 -38t-15.5 -37.5t-37.5 -15.5t-37.5 15.5t-15.5 37.5zM742 464zM688 463.5q0 22.5 16 38t38 15.5t37.5 -15.5t15.5 -38t-15.5 -38t-37.5 -15.5t-38 15.5t-16 38z
M795 688zM742 688q0 22 15.5 37.5t37.5 15.5t37.5 -15.5t15.5 -37.5t-15.5 -38t-37.5 -16t-37.5 16t-15.5 38z" />
    <glyph glyph-name="tubiao-01" unicode="&#xe6cb;" 
d="M957 208q0 -20 -14.5 -34.5t-34.5 -14.5h-792q-20 0 -34.5 14.5t-14.5 34.5v503q0 20 14.5 34.5t34.5 14.5h792q20 0 34.5 -14.5t14.5 -34.5v-503zM125 704h774v-489h-774v489zM512 186zM497 186v0q0 -7 4.5 -11.5t10.5 -4.5t10.5 4.5t4.5 11.5v0v0q0 6 -4.5 10.5
t-10.5 4.5t-10.5 -4.5t-4.5 -10.5v0zM687 45h-62v79q0 7 -5.5 12t-12.5 5h-190q-7 0 -12.5 -5t-5.5 -12v-79h-62q-7 0 -12 -5t-5 -12v-11q0 -7 5 -12.5t12 -5.5h350q7 0 12 5.5t5 12.5v11q0 7 -5 12t-12 5zM177 297l224 213l131 -56l239 187l-12 18l88 24l-43 -80l-15 13
l-252 -195l-131 54l-210 -199zM403 279q0 -3 -3 -3h-70q-4 0 -4 3v92v0q0 4 4 4v0h70v0q3 0 3 -4v0v-92zM308 275h-4h-70h-3v17q0 1 3 1h70q4 0 4 -1v-17zM500 280q0 -5 -4 -5h-69q-4 0 -4 5v127q0 2 1 3.5t3 1.5h69q4 0 4 -5v-127zM596 279q0 -4 -3 -4h-70q-4 0 -4 4v116
q0 5 4 5h70q3 0 3 -5v-116zM693 281q0 -6 -4 -6h-70q-3 0 -3 6v171q0 6 3 6h70q4 0 4 -6v-171zM789 284q0 -9 -4 -9h-69q-4 0 -4 9v240q0 10 4 10h69q4 0 4 -10v-240z" />
    <glyph glyph-name="work-list" unicode="&#xe68f;" horiz-adv-x="1081" 
d="M444 243h285v-28h-285v28zM327 247h36v-36h-36v36zM444 365h285v-29h-285v29zM327 369h36v-36h-36v36zM444 486h285v-28h-285v28zM327 490h36v-36h-36v36zM444 122h285v-29h-285v29zM327 126h36v-36h-36v36zM256 -78q-26 0 -44.5 18.5t-18.5 44.5v672q0 26 18.5 44.5
t44.5 18.5h39v-29h-39q-14 0 -24 -10t-10 -24v-672q0 -14 10 -24.5t24 -10.5h548q14 0 24.5 10.5t10.5 24.5v672q0 14 -10.5 24t-24.5 10h-43v29h43q26 0 44.5 -18.5t18.5 -44.5v-672q0 -26 -18.5 -44.5t-44.5 -18.5h-548zM363 629v129q0 6 4.5 10.5t9.5 4.5h62l3 8
q8 29 32 47t54 18t54 -18t32 -47l2 -8h62q6 0 10.5 -4.5t4.5 -10.5v-129h-330zM392 658h272v86h-61q-6 0 -10 4t-4 10q-1 25 -18.5 42.5t-42.5 17.5t-42.5 -17.5t-18.5 -42.5q0 -6 -4 -10t-10 -4h-61v-86z" />
    <glyph glyph-name="guanxi" unicode="&#xe637;" 
d="M179 43q4 2 7 4q-4 -1 -7 -4v0zM179 43q4 2 7 4q-4 -1 -7 -4v0zM404 765q-1 -2 -1 -5q0 -4 1 -7q5 6 0 12zM404 765q-1 -2 -1 -5q0 -4 1 -7q5 6 0 12zM179 43q4 2 7 4q-4 -1 -7 -4zM404 765q-1 -2 -1 -5q0 -4 1 -7q5 6 0 12zM961 361q-8 152 -103.5 270t-239.5 156
q2 -13 2 -26.5t-2 -27.5q123 -36 204 -139.5t88 -234.5q0 -10 7.5 -17.5t17.5 -7.5h1q10 1 17.5 8.5t7.5 17.5v1v0zM889 269q-55 0 -94.5 -39.5t-39.5 -95.5q0 -52 34 -90q-49 -50 -133 -85t-154 -35v0q-152 0 -267 100q14 16 23.5 42t9.5 47v0q0 56 -39 96t-95 40
q-16 0 -32 -4q-10 45 -10 92v0q0 130 73 236t192 151q12 -43 48 -71t81 -28q48 0 85 31t47 77q2 14 2 27.5t-2 26.5q-10 47 -46.5 78t-85.5 31q-51 0 -88.5 -34t-44.5 -85q-139 -47 -225.5 -168.5t-86.5 -271.5q0 -58 14 -113v-2q-22 -17 -38 -48.5t-16 -60.5v0
q0 -56 39 -95.5t95 -39.5q31 0 60 14q54 -49 143.5 -84t163.5 -35v0v0q80 0 176 40.5t152 98.5q28 -14 59 -14q56 0 95 39.5t39 96t-39 96t-95 39.5v0zM403 765q2 33 26 56t57 23q35 0 59 -24.5t24 -59t-24 -59.5t-59 -25q-32 0 -56 22t-26 55q-1 3 -1 7v5zM186 47
q-22 -18 -51 -18v0q-35 0 -59.5 24.5t-24.5 59.5t24.5 59.5t59 24.5t59 -24.5t24.5 -59.5q0 -40 -32 -66v0zM889.5 50q-34.5 0 -59 24.5t-24.5 59t24.5 59.5t59 25t58.5 -25t24 -59.5t-24 -59t-58.5 -24.5z" />
    <glyph glyph-name="excel" unicode="&#xe631;" horiz-adv-x="1312" 
d="M652 350h239v-68h-239v68zM652 486h239v-68h-239v68zM652 213h239v-68h-239v68zM39 608v-546h546v546h-546zM386 179l-74 111l-34 -50h34v-61h-168l122 180l-108 162h90l64 -94l64 94h90l-108 -162l122 -180h-94zM974 714l-130 131q-21 21 -57.5 36t-66.5 15h-437
q-30 0 -51.5 -21.5t-21.5 -51.5v-147h58v147q0 6 4.5 10.5t10.5 4.5h437q6 0 14 -2v-231h232q1 -8 1 -39v-621q0 -6 -4.5 -10.5t-9.5 -4.5h-670q-6 0 -10.5 4.5t-4.5 10.5v49h-58v-49q0 -30 21.5 -51.5t51.5 -21.5h669q31 0 52 21.5t21 51.5v621q0 33 -15.5 80.5t-35.5 67.5
zM792 663v149q6 -4 10 -9l130 -130q5 -4 9 -10h-149z" />
  </font>
</defs>
</svg>
